<?xml version="1.0" encoding="UTF-8" standalone="no"?>
<!-- Created with Inkscape (http://www.inkscape.org/) -->

<svg
   xmlns:dc="http://purl.org/dc/elements/1.1/"
   xmlns:cc="http://creativecommons.org/ns#"
   xmlns:rdf="http://www.w3.org/1999/02/22-rdf-syntax-ns#"
   xmlns:svg="http://www.w3.org/2000/svg"
   xmlns="http://www.w3.org/2000/svg"
   xmlns:sodipodi="http://sodipodi.sourceforge.net/DTD/sodipodi-0.dtd"
   xmlns:inkscape="http://www.inkscape.org/namespaces/inkscape"
   width="210mm"
   height="297mm"
   viewBox="0 0 210 297"
   version="1.1"
   id="svg69"
   inkscape:version="0.92.4 (unknown)"
   sodipodi:docname="nilenso-systems-vertical.svg"
   inkscape:export-filename="/home/arun/work/website/nilenso.systems/images/nilenso-systems-vertical-400.png"
   inkscape:export-xdpi="32.830002"
   inkscape:export-ydpi="32.830002">
  <defs
     id="defs63" />
  <sodipodi:namedview
     id="base"
     pagecolor="#ffffff"
     bordercolor="#666666"
     borderopacity="1.0"
     inkscape:pageopacity="0.0"
     inkscape:pageshadow="2"
     inkscape:zoom="0.49497475"
     inkscape:cx="801.12132"
     inkscape:cy="1096.9634"
     inkscape:document-units="mm"
     inkscape:current-layer="layer1"
     showgrid="false"
     inkscape:window-width="1920"
     inkscape:window-height="1136"
     inkscape:window-x="0"
     inkscape:window-y="27"
     inkscape:window-maximized="1" />
  <metadata
     id="metadata66">
    <rdf:RDF>
      <cc:Work
         rdf:about="">
        <dc:format>image/svg+xml</dc:format>
        <dc:type
           rdf:resource="http://purl.org/dc/dcmitype/StillImage" />
        <dc:title></dc:title>
      </cc:Work>
    </rdf:RDF>
  </metadata>
  <g
     inkscape:label="Layer 1"
     inkscape:groupmode="layer"
     id="layer1">
    <g
       id="g4800"
       transform="matrix(0.10091401,0,0,0.10091401,41.360421,64.16447)"
       inkscape:export-xdpi="12.14"
       inkscape:export-ydpi="12.14">
      <g
         transform="translate(147.72671,100.99999)"
         id="#000000ff">
        <path
           style="opacity:1;fill:#000000"
           inkscape:connector-curvature="0"
           id="path2"
           d="m 937.66,0 h 0.43 c -5.31,12.04 -12.84,22.98 -21.3,33.01 -3.76,4.65 -9.47,7.01 -13.62,11.22 -4.19,3.84 -7.4,8.58 -11.41,12.57 -3.13,3.19 -7.88,4.83 -9.77,9.14 -2.7,5.99 -8.12,9.94 -12.99,14.05 -3.22,2.76 -7.44,4.72 -9.3,8.74 -1.37,2.74 -3.15,5.23 -5.17,7.52 -0.86,-1.05 -1.72,-2.1 -2.57,-3.14 -11.04,8.48 -20.91,18.36 -31.43,27.47 -7.38,6.9 -15.58,13.01 -21.95,20.91 -8.58,10.12 -19.41,18.18 -27.48,28.71 6.26,-3.56 11.37,-8.71 16.9,-13.26 8.37,-7.59 16.74,-15.19 24.9,-23.03 12.39,-11.58 24.13,-23.91 37.34,-34.56 -0.34,1.02 -1.03,3.05 -1.38,4.07 8.93,-5.14 15.82,-13.02 24.31,-18.79 -0.52,0.96 -1.56,2.89 -2.08,3.86 10.44,-2.38 15.39,-13.05 23.96,-18.46 -2.64,5.25 -8.17,8.41 -10.11,14.09 4.1,-1.24 6.88,-4.53 9.76,-7.48 2.98,-3.14 7.39,-4.53 9.98,-8.1 5.02,-6.48 11.17,-12 17.77,-16.84 -3.75,10.43 -14.28,16.16 -18.74,26.13 -2.98,5.32 -6.81,10.36 -11.93,13.79 1.13,-2.72 2.45,-5.34 3.62,-8.04 -6.11,4.19 -11.54,9.54 -15.36,15.91 1.79,-0.73 3.59,-1.5 5.39,-2.26 -6.7,8.61 -15.26,15.52 -22.76,23.4 -5.85,6.23 -13.01,11.48 -17.1,19.15 5.7,-1.81 9.95,-6.14 14.43,-9.88 7.62,-6.31 14.37,-13.58 21.55,-20.38 4.79,-4.89 10.21,-9.35 13.77,-15.3 3,-4.88 7.69,-8.32 11.99,-11.97 12.85,-10.89 21.89,-25.48 34.23,-36.85 -0.1,9.65 -8.1,15.94 -12.47,23.7 5.77,-3.06 8.07,-9.61 13.11,-13.47 0,7.77 -6.29,13.7 -6.26,21.53 4.77,-5.01 8.91,-10.58 13.78,-15.5 -2.26,4.3 -4.94,8.38 -6.93,12.81 8.61,-5.25 14.81,-13.52 23.04,-19.3 -9.36,13.02 -22.65,22.8 -31.3,36.39 -2.57,3.76 -5.56,7.2 -8.44,10.72 0.36,0.93 0.74,1.87 1.12,2.8 -7.38,12 -17.78,21.77 -25.53,33.52 -5.43,7.95 -13.19,14.32 -17.07,23.28 -1.41,3.03 -4.6,4.64 -6.3,7.47 -2.05,3.39 -3.31,7.19 -5.41,10.56 -3.97,6.49 -9.29,12.01 -13.69,18.19 -1.99,2.58 -1.71,6.09 -3.3,8.82 -2.2,3.03 -5.21,5.32 -7.87,7.91 -11.82,11.33 -24.21,22.08 -35.55,33.91 0.57,0.24 1.69,0.73 2.26,0.98 -6.12,9.88 -15.74,16.61 -24.14,24.37 8.74,17.7 19.33,34.75 24.55,53.95 3.28,11.14 6.51,22.3 9.42,33.55 2.92,9.99 4.29,20.34 6.29,30.53 1.37,8.63 2.96,17.22 4.03,25.89 0.93,12.96 0.95,26 2.45,38.92 0.65,5.66 1.24,11.34 1.31,17.04 -0.08,10.38 -2.03,20.61 -3.33,30.88 -0.91,6.99 -2.76,13.81 -4.77,20.56 -5.15,16.41 -7.38,33.54 -11.99,50.09 1.65,-1.72 3.24,-3.49 4.93,-5.17 -1.56,7.14 -4.97,13.66 -7.72,20.37 -2.79,6.39 -5.39,12.86 -8.22,19.23 -1.5,3.48 -5.08,5.58 -6.47,9.09 0.09,2.36 1.16,4.68 0.72,7.05 -1.18,3.17 -3.45,5.78 -4.93,8.8 -2.33,4.61 -4.46,9.34 -7.29,13.69 -9.58,15.11 -20,29.73 -31.75,43.23 -4.39,5.15 -9.49,9.65 -13.77,14.9 1.83,-0.27 3.66,-0.53 5.51,-0.78 -6.14,5.78 -12.54,11.29 -18.67,17.08 -2.58,2.32 -4.17,5.64 -7.04,7.62 -2.66,0.58 -5.48,0.22 -8.04,1.17 -2.48,2.06 -2.37,5.98 -4.97,8 -5.58,4.58 -11.58,8.8 -18.33,11.47 -2.32,1.18 -5.4,1.85 -6.58,4.44 -1.01,1.71 -1.43,3.85 -2.9,5.26 -3.33,1.97 -7.33,2.44 -10.58,4.55 -2.23,1.71 -3.55,4.35 -5.84,5.98 -8.29,4.33 -18.45,4.33 -26,10.16 -6.96,4.46 -15.2,6.08 -22.76,9.18 -9,3.64 -18.57,5.41 -27.98,7.59 -7.62,1.74 -15.3,3.21 -23.05,4.19 6.61,-2.49 13.42,-4.42 20.14,-6.62 21.96,-7.01 43.76,-14.94 64.06,-25.99 8.2,-4.74 16.72,-9.24 23.76,-15.66 -4.15,0.83 -7.92,2.78 -11.64,4.7 0.34,-1.14 1.01,-3.42 1.35,-4.56 -2.88,1.8 -5.96,3.31 -8.62,5.42 -2.19,1.76 -2.98,5.08 -5.83,5.99 -4.47,1.62 -9.16,2.6 -13.47,4.65 -10.21,4.79 -20.41,9.58 -30.6,14.4 -2.67,1.31 -5.63,1.96 -8.59,1.61 8.65,-5.68 18.42,-9.4 27.11,-15.01 3.88,-2.43 7.6,-5.12 11.32,-7.78 3.48,-2.67 8.01,-3.1 11.84,-5.08 7.97,-4.01 14.76,-9.91 22.09,-14.92 6.47,-4.42 12.38,-9.57 18.05,-14.97 3.35,-3.31 7.54,-6.04 9.36,-10.58 -6.27,3.31 -11.23,8.59 -17.55,11.79 2.93,-4.51 7.59,-7.41 11.44,-11.04 9.2,-7.77 17.79,-16.21 26.56,-24.46 12.34,-12.11 23.62,-25.37 33.06,-39.87 0.87,-1.5 2.25,-3.08 1.2,-4.87 -2.67,2.05 -4.52,4.91 -6.52,7.58 -5.96,8 -11.63,16.23 -18.09,23.85 -4.5,5.3 -10.9,8.42 -15.81,13.29 -2.55,2.58 -5.54,4.66 -8.72,6.39 -4.24,2.29 -6.32,6.91 -9.82,10.03 -3.09,2.92 -7.18,5.66 -11.64,4.41 2.87,-2.42 6.19,-4.26 8.99,-6.75 -0.23,-0.63 -0.7,-1.87 -0.93,-2.49 -14.62,11.56 -29.49,22.84 -45.29,32.74 -14.15,8.32 -28.2,17.14 -43.67,22.83 1.68,-1.81 3.71,-3.24 5.89,-4.38 13.86,-7.58 27.68,-15.3 40.87,-24.01 2.89,-1.94 4.94,-4.8 6.54,-7.84 -8.27,4.03 -15.98,9.09 -24.26,13.1 -14.16,7.64 -29.04,13.81 -44.03,19.59 0.09,-0.38 0.22,-0.76 0.34,-1.12 4.2,-1.17 7.93,-3.46 11.74,-5.5 4.52,-2.46 9.28,-4.54 13.39,-7.67 -5.63,-0.65 -10.3,2.82 -15.14,5.03 -10.97,5.46 -22.59,9.41 -34.03,13.73 -2.57,1.07 -5.36,1.3 -8.11,1.29 8.4,-5 17.86,-7.93 26.17,-13.08 -2.09,-0.16 -4.18,-0.27 -6.26,-0.35 3.36,-1.92 6.89,-3.59 9.84,-6.13 6.73,-5.91 14.7,-10.1 22.41,-14.54 15.22,-8.21 28.63,-19.23 42.76,-29.09 3.43,-2.26 6.39,-5.26 7.99,-9.09 -6.42,1.75 -11.33,6.43 -16.12,10.79 -5.74,5.32 -12.94,8.58 -19.72,12.31 -6.46,3.56 -13.69,5.36 -20.33,8.51 -2.95,1.4 -6.02,2.72 -9.32,2.9 -5.04,0.33 -9.96,1.52 -14.98,2.01 4.8,-4.16 10.66,-6.71 16.08,-9.92 7.41,-4.1 14.6,-8.6 21.22,-13.89 7.64,-6.15 15.75,-11.66 23.63,-17.48 4.13,-3.11 8.84,-5.69 11.81,-10.05 -26.43,14.17 -50.87,32.33 -78.96,43.3 3.51,-2.6 7.17,-4.99 10.54,-7.78 5.05,-4.17 11.11,-6.83 16.5,-10.51 8.68,-5.85 16.75,-12.55 25.26,-18.66 2.52,-1.52 3.35,-4.41 3.98,-7.09 -5.64,3.7 -10.42,8.75 -16.79,11.29 -5.22,2.63 -11.29,2.83 -16.43,5.57 -7.16,4.79 -13.02,11.38 -20.56,15.63 1.78,-2.89 4.06,-5.42 6.26,-7.99 -6.92,2.74 -13.13,7.25 -20.45,8.9 3.76,-4.4 9.5,-6.15 14.27,-9.17 17.9,-10.67 34.86,-23.07 49.97,-37.45 -6,0.44 -10.09,5.75 -15.7,7.48 5.07,-4.56 11.12,-7.86 16.17,-12.45 15.6,-14.36 31.46,-28.62 44.55,-45.39 11.44,-14.12 21.4,-29.45 29.47,-45.75 5.57,-10.18 10.33,-20.8 14.09,-31.78 3.86,-11.62 5.62,-23.77 7.83,-35.77 1.83,-9.96 3.22,-20.01 3.84,-30.12 0.39,-16.39 0.1,-32.78 -0.71,-49.14 -0.9,-16.25 -4.22,-32.31 -8.88,-47.87 -2.55,-7.89 -5.39,-15.68 -8.09,-23.52 -3.61,3.09 -7.19,6.23 -10.76,9.38 2.13,6.15 4.99,12.07 6.34,18.46 -1.33,-1.02 -2.4,-2.29 -2.92,-3.87 -1.67,-4.47 -3.13,-9.01 -4.92,-13.43 -13.66,12.24 -27.56,24.21 -41.39,36.25 -4.05,3.62 -7.05,8.45 -11.94,11.07 -4.86,2.67 -9.87,5.08 -14.66,7.88 8.16,-10.04 17.75,-18.79 26.54,-28.27 -6.62,4.93 -13.61,9.29 -20.62,13.62 -14.81,10.64 -28.12,23.18 -41.44,35.59 -6.79,6.8 -14.33,13 -19.83,20.97 4.34,-1.44 8.93,-2.52 12.7,-5.24 3.4,-2.44 7.08,-4.64 11.31,-5.21 -1.04,6.76 -7.02,10.61 -11.38,15.21 -11.97,12.05 -24.51,23.52 -36.83,35.21 -55.2,52.14 -111.35,103.26 -167.4,154.47 4.6,1.27 9.09,2.91 13.56,4.61 -1.19,-2.72 -2.41,-5.42 -3.58,-8.14 5.9,3.21 11.58,6.81 17.61,9.76 0.74,-0.76 1.49,-1.52 2.24,-2.26 4.74,0.99 9.77,1.41 14.04,3.92 7.13,4.25 13.74,9.39 19.66,15.21 8.79,8.43 14.69,19.23 19.82,30.14 0.92,-0.74 1.86,-1.48 2.8,-2.2 0.98,7.89 3.14,15.91 1.42,23.86 -1.18,5.23 -3.43,10.18 -5.94,14.9 -2.38,4.52 -7.07,7.38 -8.89,12.25 -2.3,5.9 -7.92,9.3 -12.52,13.25 -4.63,4.1 -10.63,5.96 -16.41,7.75 -4.4,1.66 -8.97,-0.67 -13.47,0.17 -5.47,0.29 -9.57,4.75 -15.04,5.07 -11.13,1.27 -22.92,2.92 -33.65,-1.3 -18.54,-6.95 -34.77,-18.66 -50.65,-30.24 -6,-4.44 -12.42,-8.27 -18.44,-12.68 -3.83,3.32 -7.97,6.38 -11.08,10.44 -10.66,13.89 -23.79,25.58 -36.26,37.79 -14.29,14.05 -29.26,27.38 -44,40.95 -14.23,12.97 -29.64,24.52 -45.07,36.01 -7.19,5.47 -15.46,9.19 -23.27,13.66 -14.6,9.35 -30.21,16.97 -45,26.01 -4.62,2.65 -9,5.76 -13.97,7.76 9.69,-7.68 20.48,-13.84 30.39,-21.23 2.32,-1.9 5.23,-3.78 5.76,-6.98 0.56,-3.37 2.54,-6.16 4.38,-8.93 -1.89,0.29 -3.78,0.62 -5.66,0.98 -1.47,2.57 -2.75,5.46 -5.32,7.15 -5.03,3.5 -10.38,6.64 -16.21,8.61 2.83,-2.72 5.9,-5.19 8.52,-8.13 -10.8,3.77 -19.19,12.04 -29.27,17.22 2.26,-3.52 4.94,-6.74 7.51,-10.03 -16.29,10.5 -31.26,22.89 -46.95,34.26 -0.12,-1.23 -0.26,-2.44 -0.4,-3.65 0.37,-0.63 1.1,-1.88 1.47,-2.51 -0.55,-0.6 -1.67,-1.81 -2.22,-2.41 8.5,-3.09 14.01,-10.63 20.04,-16.94 3.04,-2.96 2.6,-7.48 3.33,-11.3 -4.01,2.21 -7.81,5.87 -12.76,5.04 0.14,0.97 0.31,1.94 0.5,2.92 -3.06,0.48 -6.12,1.1 -8.98,2.35 5.59,-6.73 11.85,-12.96 16.64,-20.3 -5.2,2.44 -9.58,6.27 -14.72,8.84 1.82,-3.18 4.19,-5.97 6.55,-8.74 -2.7,1.2 -5.18,2.8 -7.67,4.37 3.42,-5.59 8.68,-9.84 11.35,-15.94 -2.51,2.07 -5.16,4.01 -8.14,5.39 3.41,-9.19 12.75,-14.59 16.54,-23.6 -4.65,1.61 -7.99,5.56 -12.69,7.11 1.38,-2.69 2.95,-5.27 4.34,-7.94 -7.28,2.41 -11.86,8.94 -18.24,12.83 2.31,-5.11 6.06,-9.32 9.43,-13.73 4.8,-6.1 8.75,-12.9 11.71,-20.07 1.26,-2.5 0.12,-5.15 -0.69,-7.56 -4.05,2.11 -7.05,5.59 -10.1,8.9 1.38,-4.55 3.94,-8.58 7.14,-12.04 1.71,-1.71 2.6,-3.94 2.6,-6.34 1.9,-1.72 3.85,-3.38 5.77,-5.06 1.07,-2.58 2.34,-5.07 3.92,-7.37 6.36,-9.48 13.18,-18.67 20.47,-27.47 1.92,-2.48 4.15,-4.91 5.02,-8 0.69,-2.57 -0.84,-4.97 -1.68,-7.29 -6.22,2.97 -10.91,8.09 -15.97,12.6 -5.9,5.32 -11.7,10.82 -18.45,15.07 9.49,-12.6 18.12,-25.95 29.59,-36.9 14.46,-14.86 30.24,-28.34 45.55,-42.29 14.02,-12.38 28,-24.81 42.37,-36.78 12.17,-10.5 24.95,-20.27 37.28,-30.57 -4.12,-6.67 -8.8,-12.99 -12.53,-19.89 -8.04,-15.42 -15.58,-31.16 -21.74,-47.43 -3.61,-10.48 -7.09,-21 -10.65,-31.49 1.86,1.24 3.73,2.47 5.65,3.64 -1.66,-4.51 -4.03,-8.69 -6.08,-13.01 -1.79,-3.65 -2.19,-7.73 -2.72,-11.69 -2.43,-16.17 -2.85,-32.56 -2.96,-48.88 0.03,-5.44 -0.23,-10.9 0.51,-16.3 1.18,2.31 2.14,4.76 2.36,7.38 1.43,12.25 0.92,24.72 3.53,36.83 1.62,7.53 2.11,15.23 3.31,22.83 1.77,9.09 4.1,18.08 6.79,26.94 1.55,5.09 4.49,9.56 6.79,14.32 2.16,4.42 3.12,9.28 4.85,13.86 1.68,-2.14 1.14,-4.79 0.4,-7.17 -4.25,-14.46 -7.79,-29.13 -12.69,-43.39 -3.74,-11.31 -6.89,-22.94 -7.17,-34.93 -0.42,-20.47 0.02,-40.95 0.61,-61.41 0.18,-10.43 2.02,-20.74 4.05,-30.95 0.85,-4.25 3.22,-7.99 4.3,-12.17 1.62,-5.89 2.7,-11.93 4.37,-17.8 1.61,-5.92 6.68,-10.13 8.31,-16.03 1.35,-4.56 -0.65,-9.5 1.29,-13.95 5.54,-14.03 11.27,-27.99 16.85,-42 1.54,-3.79 2.44,-7.98 5.24,-11.11 0.92,10.59 -6.49,18.97 -10.18,28.25 -1.08,2.12 0.13,4.37 0.66,6.46 5.88,-11.09 10.3,-22.9 15.69,-34.23 0.66,-1.26 1.65,-2.21 2.96,-2.85 -0.76,5.92 -2.22,11.79 -4.66,17.25 -1.57,3.67 -3.59,7.21 -4.26,11.19 -0.56,3.87 0.83,7.65 1.74,11.36 3.63,-6.52 5.97,-13.75 10.35,-19.83 -0.76,5.88 -2.7,11.51 -4.31,17.21 5.06,-5.49 9.31,-11.77 15.04,-16.6 -0.97,5.57 -3.28,10.77 -5.07,16.1 -5.22,15.29 -11.9,30.1 -15.85,45.81 -2.4,8.77 -3.57,17.82 -4.08,26.89 8.75,-18.92 12.78,-39.68 22.5,-58.18 -0.49,3 -0.97,6 -1.2,9.04 4.01,-5.48 4.99,-12.63 9.58,-17.72 -0.75,12.88 -6.34,24.81 -8.35,37.45 5.2,-9.7 7.95,-20.55 13.39,-30.12 0.13,2.3 0.18,4.61 0.31,6.92 3.42,-5.63 5.98,-11.73 9.17,-17.49 5.7,-11.07 12.41,-21.58 19.1,-32.08 1.42,-2.65 3.89,-4.4 6.54,-5.68 -2.95,9.5 -9.49,17.3 -14.66,25.66 -5.78,8.27 -9.16,17.88 -12.48,27.32 -0.94,1.74 0.44,3.2 1.28,4.62 0.37,-1.32 0.73,-2.65 1.09,-3.97 0.74,0.84 1.49,1.68 2.23,2.53 5.84,-10.79 11.6,-21.62 17.02,-32.62 4.5,-8.42 7.34,-17.81 13.35,-25.37 7.77,-9.72 15.87,-19.28 22.52,-29.8 -6.62,4.81 -11.74,11.4 -18.49,16.07 6.12,-8.94 13.32,-17.08 19.88,-25.68 0.54,0.64 1.6,1.91 2.13,2.55 1.95,-1.44 3.86,-2.94 5.66,-4.57 10.98,-10.07 21.81,-20.35 33.57,-29.52 4.67,-3.61 9.96,-6.3 15.4,-8.55 15.73,-6.64 31.6,-12.95 47.4,-19.43 12.53,-5.22 25.51,-9.68 36.98,-17.09 -2.45,0.31 -4.91,0.58 -7.37,0.72 3.33,-2.42 7.49,-3.16 11.05,-5.09 1.13,-1.6 1.82,-3.46 3,-5.02 3.09,-1.47 6.65,-1.27 9.97,-1.82 5.93,-0.47 11.04,-4.33 17.1,-4.15 15.94,-0.44 31.93,-1.33 47.86,-0.35 13.26,0.94 26.25,3.98 39.05,7.42 9.34,2.46 18.94,3.86 28.2,6.66 7.17,2.14 13.91,5.44 20.74,8.45 10.58,4.61 20.96,9.65 31.32,14.72 8.95,4.94 17.85,9.99 26.41,15.58 2.46,1.54 4.81,3.29 7.48,4.48 4.39,-3.35 8.21,-7.4 12.82,-10.51 -3.16,-2.71 -6.53,-5.19 -10.17,-7.21 -7.65,-4.28 -15.29,-8.61 -22.79,-13.17 -5.2,-3.14 -9.97,-7.27 -12.99,-12.62 5.63,1.78 9.23,6.91 14.62,9.12 6.48,2.81 13.33,4.85 19.39,8.54 8.3,5.15 17.17,9.25 25.92,13.54 0.13,0.52 0.38,1.57 0.51,2.09 2.51,-2.19 4.91,-4.51 7.27,-6.85 -1.29,-1.32 -2.57,-2.64 -3.84,-3.97 2.01,0.87 4.01,1.76 6.03,2.61 -0.17,-0.95 -0.5,-2.87 -0.66,-3.82 0.83,0.38 1.67,0.78 2.52,1.17 15.37,-15.34 31.15,-30.28 47.52,-44.55 3.63,-3.18 8.32,-4.86 11.79,-8.27 10.98,-10.3 22.01,-20.57 32.99,-30.88 4.03,-3.46 8.36,-8.8 14.33,-7.25 0.22,3.06 -2.61,4.98 -4.45,6.99 -18.79,17.91 -37.32,36.09 -55.69,54.43 -12.64,13.54 -25.42,26.94 -38.35,40.19 1.95,0.87 3.9,1.73 5.86,2.59 10.03,-9.78 19.85,-19.78 29.86,-29.59 4.19,-4.19 9.41,-7.1 13.91,-10.92 8.4,-7.36 16.21,-15.38 24.79,-22.54 0.29,1.5 0.61,3.01 0.93,4.51 3.36,-1.71 6.29,-4.11 9.06,-6.64 -0.08,1.64 -0.13,3.28 -0.15,4.92 1.19,-1.24 2.35,-2.53 3.45,-3.86 -0.79,-0.7 -1.58,-1.41 -2.35,-2.11 1.97,-0.31 4.51,0.2 5.92,-1.66 5,-5.22 10.58,-10.09 14.2,-16.45 -1.52,-0.69 -3,-1.39 -4.49,-2.1 -1.37,0.66 -2.73,1.31 -4.09,1.96 3.2,-5.3 7.57,-10.49 13.89,-11.96 0.6,1.06 1.22,2.12 1.85,3.17 3.29,-3.47 6.29,-7.24 8.36,-11.58 -1.76,0.74 -3.48,1.51 -5.22,2.26 1.55,-2.95 3.19,-5.94 5.74,-8.16 3.48,-3.27 8.61,-4.38 11.49,-8.35 2.42,-3.14 4.94,-6.24 8.1,-8.69 6.18,-4.84 12.38,-9.66 18.77,-14.22 -0.36,0.9 -1.07,2.71 -1.43,3.61 5.04,-2.67 7.87,-7.75 11.77,-11.67 5.56,-5.73 11.18,-11.44 17.45,-16.39 0.18,5.02 -2.93,9.02 -4.58,13.51 6.15,-3.11 9.13,-9.65 13.41,-14.7 6.89,-8.31 13.59,-16.83 21.3,-24.42 m -74.97,110.7 c -3.33,3.18 -6.94,6.29 -8.95,10.52 4.27,-0.92 7.35,-4.23 10.46,-7.05 2.3,-2.33 5.21,-4.58 5.38,-8.16 -2.68,0.95 -4.87,2.76 -6.89,4.69 m -29.97,20.01 c -13.75,12.55 -27.16,25.47 -40.58,38.37 -3.93,4.01 -8.26,7.71 -11.44,12.38 3.24,-1.05 6.06,-3 9.08,-4.53 -7.65,8.02 -15.74,15.6 -23.49,23.53 -1.73,1.73 -3.04,3.81 -4.29,5.9 0.85,0.12 2.57,0.37 3.42,0.49 -0.33,0.81 -1,2.44 -1.33,3.25 1.61,-0.54 3.17,-1.29 4.46,-2.46 10.01,-8.98 19.99,-18.02 29.17,-27.86 6.62,-7.07 11.16,-16.3 19.7,-21.39 4.73,-2.76 8.56,-6.74 12.41,-10.58 2.81,-3 6.07,-5.97 6.9,-10.2 -1.68,0.43 -3.32,0.9 -4.98,1.37 5.86,-9 13.57,-16.55 21.02,-24.2 1.66,-1.68 3.14,-3.52 4.43,-5.51 -8.86,6.29 -16.39,14.23 -24.48,21.44 m -46.71,16.22 c -1.14,1.65 -3.1,3.41 -2.3,5.64 3.13,-1.24 5.44,-3.76 7.8,-6.06 4.34,-4.44 8.68,-9.03 11.59,-14.57 -6.69,3.71 -12.13,9.25 -17.09,14.99 m -9.99,2.01 c -2.19,2.38 -4.49,4.87 -5.28,8.11 3.05,-1.59 5.71,-3.79 8.11,-6.25 2.89,-2.99 6.06,-5.98 7.43,-10.03 -4.09,1.77 -7.24,4.99 -10.26,8.17 m -273.27,10.73 c 1.04,0.66 2,1.62 3.3,1.71 9.36,0.72 18.85,0.75 28.06,2.8 4.89,1.02 8.46,4.9 13.13,6.45 6.01,2.08 12.47,1.65 18.71,2.36 6.59,0.55 12.79,3.03 19.12,4.78 10.76,3 21.95,5.59 31.43,11.79 14.88,9.48 30.28,18.11 45.21,27.52 1.12,-0.96 2.25,-1.92 3.38,-2.87 -7.81,-6.26 -14.96,-13.34 -23.27,-18.97 -7.51,-5.09 -15.43,-9.69 -23.86,-13.05 -3.51,-1.73 -7.32,1.25 -10.81,-0.48 -10.03,-4.26 -19.72,-9.51 -30.25,-12.51 -10.22,-3.06 -20.49,-5.94 -30.87,-8.4 -14.21,-3.12 -28.9,-2.84 -43.28,-1.13 m -92.92,22.11 c -15.03,7.4 -29.35,16.13 -44.15,23.98 -8.23,4.32 -15.39,10.43 -21.37,17.5 -7.6,9.09 -15.79,17.65 -24.01,26.17 -8.01,8.97 -15.43,18.46 -23.69,27.21 -2.44,2.82 -5.57,5.59 -5.91,9.55 2.56,-2.24 4.71,-4.89 7.08,-7.32 -6.55,11.92 -16.19,22.04 -21.24,34.77 -0.88,1.3 0.27,2.42 0.87,3.54 3.88,-7.78 9.11,-14.77 13.66,-22.15 5.58,-8.2 9.55,-17.41 15.68,-25.24 5.53,-7.46 12.18,-13.98 18.41,-20.83 5.71,-6.45 12.52,-11.77 18.67,-17.77 0.2,1.87 -1.52,4.78 0.86,5.7 2.3,-2.86 4.09,-6.08 6.26,-9.02 -0.7,6.3 -4.15,11.87 -8.22,16.57 -2.16,2.56 -4.88,4.74 -6.16,7.92 1.44,-0.46 3.26,-0.26 4.45,-1.34 1.51,-1.76 2.41,-4.09 4.45,-5.36 2.71,-1.69 5.92,-2.27 9,-2.92 -2.63,5.99 -8.97,9.06 -11.83,14.88 -1.17,2.25 -1.73,4.77 -3.01,6.98 -2.75,1.41 -6.32,1.17 -8.56,3.58 -2.62,2.81 -3.51,6.71 -4.67,10.26 -1.52,0.12 -3.09,0.01 -4.52,0.6 -1.07,2.18 -0.91,4.67 -1.17,7.02 -0.56,-0.48 -1.69,-1.46 -2.26,-1.95 -8.56,15.16 -16.79,30.51 -25.03,45.84 -1.29,-2.28 -2.53,-4.6 -3.81,-6.88 -2.08,4.59 -5.75,8.73 -5.76,14.03 -0.05,3.53 -1.65,6.71 -3.14,9.82 -0.87,-0.51 -1.73,-1.01 -2.58,-1.51 -0.7,2.13 -1.4,4.26 -2.16,6.36 -1.91,1.31 -4.29,2.63 -4.7,5.14 -2.78,13.32 -5.46,26.67 -7.37,40.15 -0.49,3.88 -0.34,7.8 -0.29,11.7 -0.48,-0.03 -1.44,-0.09 -1.92,-0.12 -0.16,-2.49 -0.36,-4.98 -0.75,-7.44 -1.73,3.18 -2.33,6.79 -3.32,10.23 1.8,0.94 3.62,1.86 5.43,2.79 1.07,-2.41 1.72,-5.22 3.97,-6.86 0.16,2.12 0.23,4.26 0.29,6.4 0.83,0.07 2.5,0.22 3.33,0.3 -1.51,8.28 -0.23,16.68 -0.09,25.01 0.83,12.73 1.8,25.48 3.87,38.08 0.72,4.07 3.13,7.65 3.59,11.8 0.15,2.17 1,4.91 -1.15,6.48 -3.85,-13.42 -6.73,-27.11 -10.28,-40.61 -0.36,-1.01 -0.9,-1.91 -1.63,-2.7 -0.63,5.32 -0.51,10.72 0.31,16.01 1.75,10.71 3.34,21.51 6.76,31.85 4.51,13.91 9.82,27.86 18.59,39.7 6.9,-4.87 13.13,-11.09 21.31,-13.8 8.46,-3.05 15.23,-9.24 21.99,-14.95 6.77,-6.25 13.23,-12.83 20.07,-18.99 2.29,-2.32 5.96,-1.52 8.46,-3.45 5.82,-4.1 10.87,-9.16 16.32,-13.72 20.56,-18.11 41.58,-35.69 61.96,-54 13.51,-11.72 25.4,-25.19 39.26,-36.51 3.98,-3.27 8.92,-5.11 12.82,-8.5 14.17,-11.43 27.2,-24.22 41.2,-35.87 4.56,-3.94 10.25,-6.17 14.98,-9.88 9.07,-6.94 18.03,-14.04 27.06,-21.05 15.23,-12.04 30.93,-23.55 44.96,-37.01 4.92,-4.77 10.49,-9.38 13.07,-15.93 -5.18,1.05 -8.82,5.29 -13.3,7.81 1.21,-2.03 2.6,-3.94 4.03,-5.81 -2.61,1.35 -5.13,2.87 -7.8,4.06 -2.46,1.15 -5.41,0.74 -7.72,2.25 -2.21,1.31 -3.86,3.32 -5.46,5.28 0.71,0.15 2.14,0.44 2.85,0.59 -5.33,5.19 -10.97,10.04 -16.85,14.59 -3.17,2.57 -7.52,2.82 -10.74,5.29 -5.75,3.7 -10.62,8.73 -16.86,11.62 1.41,-4.02 5.04,-6.53 7.95,-9.42 10.53,-9.1 21.13,-18.13 31.77,-27.1 5.78,-4.97 11.96,-9.6 16.73,-15.61 2.66,-3.35 6.59,-5.25 10.35,-7.1 -1.13,-0.75 -2.26,-1.48 -3.38,-2.21 -11.61,-9.77 -25.03,-17.49 -39.61,-21.81 -14.3,-4.88 -29.19,-7.7 -44.03,-10.38 -17.41,-3.11 -35.18,-1.06 -52.57,1.16 -17.46,1.8 -34.94,5.53 -50.74,13.4 -14.4,5.72 -27.84,13.48 -41.74,20.24 -3.46,1.72 -7.74,1.61 -10.7,4.3 -4.28,3.56 -8.52,7.16 -12.8,10.7 -0.92,-1.96 -1.86,-3.91 -2.9,-5.81 -0.82,3.09 -1.26,6.52 -3.51,8.98 -2.71,2.97 -6.17,5.09 -9.15,7.76 -11.58,10.42 -21.41,22.55 -31.9,34.01 -0.8,-0.93 -1.6,-1.85 -2.44,-2.72 -2.23,4.29 -3.55,9.11 -6.64,12.91 -9.74,12.35 -11.98,28.43 -18.43,42.41 -2.24,3.67 -4.41,7.44 -5.15,11.75 -1.83,8.6 -4.73,16.93 -8.8,24.73 -0.54,-2.06 -1.07,-4.1 -1.6,-6.15 0.46,-0.1 1.38,-0.29 1.84,-0.39 6.25,-12.67 3.96,-27.91 11.63,-40.05 3.86,-7.46 5.04,-16.04 9.47,-23.25 6.02,-9.57 12.04,-19.16 19.05,-28.06 16.1,-22.51 37.95,-40.36 61.74,-54.21 0.62,0.92 1.24,1.85 1.87,2.78 8.08,-4.62 16.34,-8.93 24.49,-13.42 14.78,-7.92 29.23,-16.46 44.33,-23.75 11.16,-4.78 23.43,-5.66 34.96,-9.16 -1.05,-0.57 -1.93,-1.71 -3.22,-1.6 -9.98,0.04 -19.81,2.02 -29.27,5.1 -3.7,1.39 -7.95,0.82 -11.47,2.6 -5.53,4.87 -13.47,5.11 -20.45,4.55 -0.32,-5.01 4.06,-8.33 5.32,-12.9 -5.58,2.06 -10.95,4.66 -16.65,6.39 -4.35,1.31 -9.19,1.39 -13.07,4.01 -4.18,2.52 -7.61,6.24 -12.19,8.07 -1.11,0.68 -2.07,-0.14 -2.86,-0.84 6.93,-4.15 13.77,-8.48 20.91,-12.27 2.73,-1.52 4.16,-4.7 7.15,-5.88 5.24,-2.36 11.1,-2.9 16.35,-5.3 4.6,-2.13 9.85,-3.33 13.64,-6.87 -6.37,-0.96 -11.77,3.25 -17.9,3.93 2.15,-1.76 4.39,-3.44 6.37,-5.4 -3.21,0.61 -6.29,1.71 -9.49,2.31 1.77,-3.26 5.58,-4.37 8.57,-6.19 2.62,-1.61 6.28,-2.19 7.59,-5.32 -11.13,1.97 -21.51,6.68 -31.81,11.16 m 335.76,1.16 c 0.44,0.57 1.33,1.72 1.78,2.29 -1.83,2.04 -3.64,4.19 -4.45,6.86 3.54,-0.9 5.03,-4.37 7.2,-6.92 3.64,-4.45 8.51,-7.92 11.08,-13.19 -5.84,2.63 -10.75,6.89 -15.61,10.96 m -362.76,5.86 c -1.27,0.63 -1.83,1.88 -2.03,3.21 11.56,-5.48 22.85,-11.55 34.13,-17.6 -11.86,1.59 -22.32,7.89 -32.1,14.39 m 357.24,-0.51 c -1.53,3.02 3.33,0.12 0,0 m -65.31,13.24 c 1.05,0.65 2.12,1.31 3.19,1.98 3.94,-3.24 7.83,-6.54 11.88,-9.63 -1.15,-1.22 -2.28,-2.43 -3.42,-3.63 -3.6,4.05 -7.72,7.57 -11.65,11.28 m 9.1,2.33 c -0.67,1.01 -2.66,1.74 -1.94,3.19 2.13,-0.07 3.31,-2.13 4.8,-3.36 2.24,-2.56 5.54,-4.49 6.39,-7.99 -3.58,2.11 -6.22,5.39 -9.25,8.16 m -20.07,14.64 c 1.59,1.09 3.17,2.18 4.77,3.28 0.79,-0.92 1.65,-1.8 2.39,-2.78 -1.32,-1.31 -2.8,-2.44 -4.23,-3.61 -0.99,1.03 -1.97,2.07 -2.93,3.11 m -26.34,26.58 c -2.94,2.75 -6.07,5.28 -9.24,7.76 3.22,-1.69 6.42,-3.43 9.67,-5.07 0.05,0.65 0.15,1.95 0.21,2.6 0.94,-0.69 1.91,-1.36 2.87,-2.04 -1.18,-1.09 -2.34,-2.17 -3.51,-3.25 m -4.16,1.21 c 0.48,0.56 0.48,0.56 0,0 m -37.55,30.63 c 2.28,-1.26 5.63,-1.93 6.36,-4.86 -2.55,0.96 -4.82,2.57 -6.36,4.86 m -294.76,31.72 c 3.95,-3.73 5.41,-9.27 8.04,-13.91 -4.12,3.57 -8.24,8.06 -8.04,13.91 m -25.27,-5.77 c -4.43,7.94 -9.24,15.68 -13.55,23.68 1.3,0.1 2.81,0.42 3.22,-1.22 4.94,-9.26 12.13,-17.5 14.73,-27.86 -2.21,1.09 -3.24,3.37 -4.4,5.4 m -72.32,9.71 c -1.4,5.89 -3.33,11.68 -4.23,17.69 2.2,-4.35 4.21,-8.83 7.46,-12.52 1.74,-2.33 -1.76,-3.9 -3.23,-5.17 m 36.88,20.86 c -2.49,7.02 -4.55,14.17 -6.98,21.2 0.63,0.05 1.88,0.14 2.5,0.19 1.9,-6.04 4.08,-11.99 5.82,-18.07 0.58,-1.35 -0.73,-2.31 -1.34,-3.32 m -31.31,49.99 c 2.07,-3.55 3.25,-7.55 4.06,-11.55 -0.29,-0.48 -0.86,-1.43 -1.15,-1.9 -1.2,4.37 -4.06,8.81 -2.91,13.45 m 62.98,131.36 c 1.69,5.2 4.03,10.14 6.06,15.21 0.55,-0.24 1.67,-0.73 2.23,-0.98 -2.13,-4.6 -3.7,-9.48 -6.17,-13.91 -0.53,-0.08 -1.59,-0.24 -2.12,-0.32 m -17.75,23.4 c -0.63,9.39 3.46,18.2 6.74,26.77 2.1,-1.93 4.31,-3.77 6.1,-5.98 -2.29,-4.73 -8.3,-6.64 -9.49,-12.01 -0.99,-2.98 -1.89,-6 -3.35,-8.78 m 18.17,15.52 c 1.39,0.31 1.92,-0.21 1.61,-1.57 -1.38,-0.35 -1.92,0.17 -1.61,1.57 m 414.81,85.25 c -2.45,3.35 -5.28,6.45 -7.26,10.13 2.92,-0.91 4.27,-3.87 6.14,-6.02 2.4,-3.4 5.79,-6.24 7.07,-10.31 -2.74,1.22 -4.19,3.94 -5.95,6.2 m -41.88,15.33 c -5.05,5.77 -9.32,12.16 -14.42,17.89 4.32,-2.64 7.8,-6.38 11.42,-9.88 3.85,-4.21 7.98,-8.35 10.55,-13.52 -2.86,1.32 -5.51,3.1 -7.55,5.51 m 19.72,7.66 c 0.24,0.39 0.73,1.16 0.97,1.55 4.21,-3.68 8.41,-7.46 11.92,-11.83 l -1.88,0.19 c -4.08,2.83 -7.53,6.56 -11.01,10.09 m -11.56,9.57 c 0.02,0.57 0.05,1.71 0.06,2.28 3.35,-3.15 7.81,-5.55 9.76,-9.88 -3.53,2.17 -6.81,4.76 -9.82,7.6 M 50.07,887.76 c 1.4,0.35 1.92,-0.16 1.57,-1.53 -1.41,-0.35 -1.93,0.16 -1.57,1.53 z" />
        <path
           style="opacity:1;fill:#000000"
           inkscape:connector-curvature="0"
           id="path4"
           d="m 938.3,26.15 c 1.8,0.35 0.34,4.13 -1.24,3.5 -0.83,-1.16 -0.05,-3.03 1.24,-3.5 z" />
        <path
           style="opacity:1;fill:#000000"
           inkscape:connector-curvature="0"
           id="path6"
           d="m 924.09,43.13 c 2.07,-4.6 6.15,-7.74 9.96,-10.85 -2.78,4.07 -5.86,8.05 -9.96,10.85 z" />
        <path
           style="opacity:1;fill:#000000"
           inkscape:connector-curvature="0"
           id="path8"
           d="m 844.26,49.68 c 5.02,-5.72 9.71,-11.92 15.88,-16.46 -0.28,5.58 -5.62,8.35 -8.27,12.68 -3.4,5.41 -6.33,11.09 -9.32,16.72 -1.68,3.51 -5.22,5.46 -8.06,7.89 -3.05,2.17 -5.87,5.66 -10.02,4.97 8.64,-7.7 16.05,-16.64 22.54,-26.21 -0.69,0.1 -2.06,0.3 -2.75,0.41 z" />
        <path
           style="opacity:1;fill:#000000"
           inkscape:connector-curvature="0"
           id="path10"
           d="m 890.38,38.1 c 0.54,0.56 0.54,0.56 0,0 z" />
        <path
           style="opacity:1;fill:#000000"
           inkscape:connector-curvature="0"
           id="path12"
           d="m 928.24,53.14 c 3.35,-4.35 6.68,-8.8 10.95,-12.32 -2.01,4.23 -5.06,7.81 -7.92,11.46 -3.77,4.73 -7.65,9.41 -12.22,13.4 2.66,-4.47 6.05,-8.41 9.19,-12.54 z" />
        <path
           style="opacity:1;fill:#000000"
           inkscape:connector-curvature="0"
           id="path14"
           d="m 785.91,94.23 c 4.03,-5.67 9.4,-10.44 15.4,-13.92 -2.14,4.89 -6.27,8.47 -10.33,11.76 -1.44,1.23 -3.27,1.75 -5.07,2.16 z" />
        <path
           style="opacity:1;fill:#000000"
           inkscape:connector-curvature="0"
           id="path16"
           d="m 510.76,85.42 c 3.43,-2.67 8.21,-2.3 12.34,-2.96 -0.3,0.34 -0.89,1.01 -1.19,1.34 -3.6,1.13 -7.4,1.45 -11.15,1.62 z" />
        <path
           style="opacity:1;fill:#000000"
           inkscape:connector-curvature="0"
           id="path18"
           d="m 499.05,91.19 c 4.43,-1.47 9.19,-0.96 13.77,-1.51 -0.1,0.57 -0.3,1.72 -0.41,2.29 -5.32,1.08 -10.72,1.7 -16.11,2.31 0.71,-1.16 1.28,-2.7 2.75,-3.09 z" />
        <path
           style="opacity:1;fill:#000000"
           inkscape:connector-curvature="0"
           id="path20"
           d="m 501,98.68 c 5.98,-0.88 11.74,-3.9 17.89,-2.85 5.95,0.82 11.9,1.71 17.84,2.62 -1.17,1.87 -2.35,3.73 -3.52,5.6 2.35,0.83 4.71,1.66 7.06,2.52 -10.12,0.06 -20.25,0.19 -30.35,1.01 -4.99,0.19 -9.98,0.91 -14.98,0.59 -0.51,-1.34 -0.95,-2.7 -1.32,-4.08 -1.5,1.09 -2.83,2.38 -4,3.81 -4.28,0.76 -8.59,1.33 -12.91,1.7 7,-5.64 15.43,-9.44 24.29,-10.92 z" />
        <path
           style="opacity:1;fill:#000000"
           inkscape:connector-curvature="0"
           id="path22"
           d="m 764.71,111.29 c 2.6,-3.25 5.88,-5.99 9.72,-7.66 -2.45,3.41 -5.92,5.94 -9.72,7.66 z" />
        <path
           style="opacity:1;fill:#000000"
           inkscape:connector-curvature="0"
           id="path24"
           d="m 454.33,110.62 c 4.24,-0.47 8.71,-1.65 12.85,-0.01 -0.77,1.04 -1.62,2.01 -2.54,2.91 -4.48,0.97 -9.09,1.19 -13.62,1.76 0.84,-1.66 0.95,-4.45 3.31,-4.66 z" />
        <path
           style="opacity:1;fill:#000000"
           inkscape:connector-curvature="0"
           id="path26"
           d="m 798.54,124.72 c 3.41,-4.44 6.93,-8.94 11.35,-12.44 0.46,0.45 1.39,1.35 1.85,1.79 -3.39,4.61 -8.37,7.74 -13.2,10.65 z" />
        <path
           style="opacity:1;fill:#000000"
           inkscape:connector-curvature="0"
           id="path28"
           d="m 417.11,123.66 c 8.74,-6.17 19.49,-8.54 30.02,-9.06 -9.96,3.17 -20.01,6.06 -30.02,9.06 z" />
        <path
           style="opacity:1;fill:#000000"
           inkscape:connector-curvature="0"
           id="path30"
           d="m 496.36,115.99 c 9.64,-0.97 19.35,-1.59 29.02,-0.66 -7.08,7.18 -17.77,4.57 -26.75,5.54 -0.83,-1.36 -1.63,-2.74 -2.42,-4.13 0.04,-0.19 0.11,-0.56 0.15,-0.75 z" />
        <path
           style="opacity:1;fill:#000000"
           inkscape:connector-curvature="0"
           id="path32"
           d="m 476.76,119.25 c 5.69,-0.99 11.38,-2.22 17.16,-2.55 l 0.22,0.47 c -0.59,2.13 -3.48,2.09 -5.12,3.08 0.42,0.6 1.25,1.81 1.67,2.41 -4.66,-1.08 -9.32,-2.15 -13.93,-3.41 z" />
        <path
           style="opacity:1;fill:#000000"
           inkscape:connector-curvature="0"
           id="path34"
           d="m 470.11,128.2 c 6.98,-1.28 14.09,-2.8 21.21,-1.78 -12.47,2.45 -24.82,5.46 -37.24,8.16 -5.36,1.1 -10.65,2.69 -16.12,3.2 10.58,-3.61 21.1,-7.62 32.15,-9.58 z" />
        <path
           style="opacity:1;fill:#000000"
           inkscape:connector-curvature="0"
           id="path36"
           d="m 483.07,134.7 c 3.26,-0.12 6.75,-1.75 9.88,-0.21 -6.46,1.31 -13.06,2.01 -19.63,2.39 2.73,-2.17 6.51,-1.52 9.75,-2.18 z" />
        <path
           style="opacity:1;fill:#000000"
           inkscape:connector-curvature="0"
           id="path38"
           d="m 723.15,150.07 c 5.62,-5.11 10.74,-11.04 17.43,-14.79 -1.18,3.36 -4.26,5.29 -6.9,7.39 -3.37,2.66 -6.83,5.23 -10.53,7.4 z" />
        <path
           style="opacity:1;fill:#000000"
           inkscape:connector-curvature="0"
           id="path40"
           d="m 342.17,157.21 c 3.13,-2.15 6.81,-3.27 10.6,-3.45 -14.32,9.61 -29.4,18.22 -42.64,29.36 -4.74,4.37 -9.15,9.08 -13.39,13.93 -6.84,7.38 -13.86,14.58 -20.77,21.89 -3.29,3.38 -6.3,7.17 -10.49,9.5 1.4,-2.52 3.1,-4.87 4.39,-7.46 -6.18,3.52 -9.27,10.66 -15.1,14.71 0.83,-2.55 2.38,-4.78 4.24,-6.68 11.99,-12.97 23.69,-26.3 37.04,-37.91 5.29,-5.11 10.23,-10.64 16.4,-14.75 9.76,-6.6 19.85,-12.7 29.72,-19.14 z" />
        <path
           style="opacity:1;fill:#000000"
           inkscape:connector-curvature="0"
           id="path42"
           d="m 806.66,161.22 c 2.72,-3.01 6.11,-5.31 9.61,-7.32 -2.67,3.07 -6.06,5.4 -9.61,7.32 z" />
        <path
           style="opacity:1;fill:#000000"
           inkscape:connector-curvature="0"
           id="path44"
           d="m 690.29,171.1 c 0.05,-0.5 0.15,-1.5 0.21,-2 3.81,2.69 8.42,4.57 11.23,8.45 -4.41,-0.72 -7.99,-3.82 -11.44,-6.45 z" />
        <path
           style="opacity:1;fill:#000000"
           inkscape:connector-curvature="0"
           id="path46"
           d="m 261.83,201.13 c 3.54,-3.72 5.69,-8.79 10.07,-11.64 -2.88,5.12 -5.03,10.59 -7.51,15.9 -2.06,4.45 -5.9,7.71 -10.27,9.76 0.07,-1.67 0.16,-3.34 0.24,-5.01 -1.59,-0.4 -3.18,-0.8 -4.77,-1.21 3.47,-4.72 6.85,-9.49 10.54,-14.04 0.9,1.98 1.35,4.11 1.7,6.24 z" />
        <path
           style="opacity:1;fill:#000000"
           inkscape:connector-curvature="0"
           id="path48"
           d="m 319.72,195.98 c 2.66,-2.27 5.52,-4.3 8.52,-6.11 -1.02,2.03 -1.87,4.25 -3.54,5.86 -1.41,1.21 -3.37,0.27 -4.98,0.25 z" />
        <path
           style="opacity:1;fill:#000000"
           inkscape:connector-curvature="0"
           id="path50"
           d="m 309.03,206.01 c 2.81,-3.14 6.05,-5.87 9.1,-8.79 -2.68,3.95 -5.42,7.89 -8.58,11.47 -2.22,1.24 -1.63,-1.85 -0.52,-2.68 z" />
        <path
           style="opacity:1;fill:#000000"
           inkscape:connector-curvature="0"
           id="path52"
           d="m 767.7,204.23 c 1.27,-2.52 3.19,-4.63 5.49,-6.25 -1.07,2.66 -3.2,4.63 -5.49,6.25 z" />
        <path
           style="opacity:1;fill:#000000"
           inkscape:connector-curvature="0"
           id="path54"
           d="m 401.53,220.2 c 2.39,-1.57 4.61,-3.48 7.31,-4.5 l 0.7,1.48 c -3.93,2.94 -8.1,5.67 -12.62,7.6 0.68,-2.27 0.84,-4.88 2.33,-6.82 0.57,0.56 1.71,1.68 2.28,2.24 z" />
        <path
           style="opacity:1;fill:#000000"
           inkscape:connector-curvature="0"
           id="path56"
           d="m 273.06,241.77 c 4.94,-5.49 9.21,-11.64 14.62,-16.67 l 0.82,1.06 c -4.19,5.91 -9.34,11.1 -13.8,16.82 -0.41,-0.3 -1.23,-0.91 -1.64,-1.21 z" />
        <path
           style="opacity:1;fill:#000000"
           inkscape:connector-curvature="0"
           id="path58"
           d="m 234.81,266.36 c 4.17,-6.8 8.43,-13.6 13.37,-19.86 0.99,2.48 -1.21,4.38 -2.35,6.32 -3.17,4.29 -5.69,9.05 -9.1,13.15 -0.48,0.1 -1.44,0.29 -1.92,0.39 z" />
        <path
           style="opacity:1;fill:#000000"
           inkscape:connector-curvature="0"
           id="path60"
           d="m 615.35,248.96 c 1.4,-0.46 1.82,0.02 1.26,1.44 -1.4,0.46 -1.82,-0.03 -1.26,-1.44 z" />
        <path
           style="opacity:1;fill:#000000"
           inkscape:connector-curvature="0"
           id="path62"
           d="m 269.57,268.39 c 1.3,-1.3 3.09,-1.94 4.7,-2.77 -1.95,3.34 -4.18,6.51 -6.71,9.44 0.41,-2.27 0.41,-4.84 2.01,-6.67 z" />
        <path
           style="opacity:1;fill:#000000"
           inkscape:connector-curvature="0"
           id="path64"
           d="m 553.19,301.9 c 0.84,-4.92 3.77,-9.52 8.64,-11.25 -0.34,0.57 -1,1.71 -1.33,2.28 0.86,0.05 2.58,0.17 3.44,0.23 -2.42,4.07 -5.52,8.48 -10.75,8.74 z" />
        <path
           style="opacity:1;fill:#000000"
           inkscape:connector-curvature="0"
           id="path66"
           d="m 564.68,306.26 c 3.17,-5.73 9.06,-8.79 13.71,-13.08 -0.4,1.5 -0.76,3.16 -2.05,4.19 -3.68,3.22 -7.54,6.25 -11.66,8.89 z" />
        <path
           style="opacity:1;fill:#000000"
           inkscape:connector-curvature="0"
           id="path68"
           d="m 223.19,309.82 c 1.26,-4.53 3.83,-8.77 6.94,-12.28 -1.44,4.18 -3.36,8.2 -5.64,11.98 -0.32,0.07 -0.98,0.22 -1.3,0.3 z" />
        <path
           style="opacity:1;fill:#000000"
           inkscape:connector-curvature="0"
           id="path70"
           d="m 234.22,315.68 c 2.31,-4.01 3.59,-8.77 7.13,-11.95 -0.45,4.7 -3.58,8.46 -5.47,12.64 -0.41,-0.17 -1.25,-0.52 -1.66,-0.69 z" />
        <path
           style="opacity:1;fill:#000000"
           inkscape:connector-curvature="0"
           id="path72"
           d="m 532.67,325.04 c 1.06,-2.06 2.58,-3.87 4.84,-4.65 -0.35,2.6 -2,4.8 -4.84,4.65 z" />
        <path
           style="opacity:1;fill:#000000"
           inkscape:connector-curvature="0"
           id="path74"
           d="m 512,337.05 c 5.39,-4.08 11.47,-8.05 18.45,-8.32 -6.29,7.53 -13.51,14.3 -20.88,20.77 -2.33,1.76 -3.3,-1.64 -3.53,-3.42 -0.13,-3.95 3.22,-6.7 5.96,-9.03 z" />
        <path
           style="opacity:1;fill:#000000"
           inkscape:connector-curvature="0"
           id="path76"
           d="m 700.51,380.71 c 1.57,2.03 1.71,4.68 2.18,7.12 1,6.74 3,13.27 4.69,19.87 1.68,0.16 3.36,0.33 5.06,0.51 -1.3,3.03 -2.37,6.31 -4.81,8.66 2.74,12.23 4.82,24.66 5.18,37.2 -0.8,9.27 -1.25,18.56 -1.69,27.86 -0.16,4.02 0.03,8.12 -1.02,12.05 -3.29,14.64 -5.79,29.46 -9.89,43.91 -3.58,11.22 -8.58,21.92 -13.86,32.43 -3.21,6.34 -6.02,12.94 -10.22,18.72 -7.55,10.48 -14.39,21.45 -22.01,31.88 -1.01,-0.86 -2.01,-1.72 -3.01,-2.57 -1.89,2.05 -3.8,4.08 -5.96,5.84 6.2,-10.51 15.21,-18.98 21.7,-29.28 10.61,-15.49 18.91,-32.41 26.56,-49.52 3.85,-8.22 6.17,-17.04 7.91,-25.93 6.24,-26.3 9.09,-53.59 6.54,-80.58 -1.5,-14.03 -3.64,-28 -5.72,-41.96 -0.74,-5.38 -2.02,-10.74 -1.63,-16.21 z" />
        <path
           style="opacity:1;fill:#000000"
           inkscape:connector-curvature="0"
           id="path78"
           d="m 716.2,415.47 c -0.61,-1.7 1.23,-1.8 2.35,-2.29 0.97,12.57 1.87,25.16 2.68,37.75 -0.57,-0.15 -1.7,-0.44 -2.27,-0.58 -1.16,-11.6 -1.83,-23.26 -2.76,-34.88 z" />
        <path
           style="opacity:1;fill:#000000"
           inkscape:connector-curvature="0"
           id="path80"
           d="m 635.52,635.52 c 3.94,-3.27 7.65,-6.81 11.73,-9.9 0.04,0.49 0.13,1.48 0.17,1.97 -2.3,2.68 -5.24,4.71 -7.81,7.1 -2.87,2.4 -5.39,5.39 -8.97,6.74 0.59,-2.69 2.95,-4.23 4.88,-5.91 z" />
        <path
           style="opacity:1;fill:#000000"
           inkscape:connector-curvature="0"
           id="path82"
           d="m 620.58,654.09 c 1.87,-5.99 8.36,-8.48 13.82,-10.17 -3.46,4.62 -9.2,6.87 -13.82,10.17 z" />
        <path
           style="opacity:1;fill:#000000"
           inkscape:connector-curvature="0"
           id="path84"
           d="m 596.62,672.29 c 3.35,-3.46 7.36,-6.27 11.59,-8.55 -0.28,1.32 -0.94,2.52 -2.14,3.21 -3,2.01 -5.87,4.46 -9.45,5.34 z" />
        <path
           style="opacity:1;fill:#000000"
           inkscape:connector-curvature="0"
           id="path86"
           d="m 586.44,682.32 c 4.66,-2.94 9.07,-6.27 13.85,-9.01 0.01,0.61 0.02,1.83 0.03,2.44 -3.4,2.52 -7.14,4.53 -10.61,6.94 -2.17,1.33 -4.23,3.15 -6.88,3.34 0.4,-1.87 2.2,-2.71 3.61,-3.71 z" />
        <path
           style="opacity:1;fill:#000000"
           inkscape:connector-curvature="0"
           id="path88"
           d="m 535.83,746.78 c 3.79,-1.48 7.63,-2.88 11.59,-3.87 -0.34,1.2 -1.07,2.02 -2.2,2.45 -3.79,1.56 -7.65,2.98 -11.61,4.07 0.23,-1.38 0.97,-2.26 2.22,-2.65 z" />
        <path
           style="opacity:1;fill:#000000"
           inkscape:connector-curvature="0"
           id="path90"
           d="m 59.78,918.96 c 2.98,-3.5 6.19,-6.93 10.23,-9.2 -1.77,4.53 -6.35,6.77 -10.23,9.2 z" />
        <path
           style="opacity:1;fill:#000000"
           inkscape:connector-curvature="0"
           id="path92"
           d="m 0,934.79 c 6.4,-6 13.39,-11.51 20.95,-15.99 -6.08,6.09 -12.9,11.45 -20.08,16.19 L 2.02,935 H 0 Z" />
      </g>
      <text
         id="text105"
         y="820"
         x="-54.5"
         style="font-style:normal;font-variant:normal;font-weight:300;font-stretch:normal;font-size:1200px;line-height:18.75px;font-family:Junction;-inkscape-font-specification:'Junction, Light';font-variant-ligatures:normal;font-variant-caps:normal;font-variant-numeric:normal;font-feature-settings:normal;text-align:start;letter-spacing:0px;word-spacing:0px;writing-mode:lr-tb;text-anchor:start;fill:#000000;fill-opacity:1;stroke:none;stroke-width:0.75px;stroke-linecap:butt;stroke-linejoin:miter;stroke-opacity:1"
         xml:space="preserve"><tspan
           style="font-style:normal;font-variant:normal;font-weight:300;font-stretch:normal;font-size:1000px;font-family:Junction;-inkscape-font-specification:'Junction, Light';font-variant-ligatures:normal;font-variant-caps:normal;font-variant-numeric:normal;font-feature-settings:normal;text-align:start;writing-mode:lr-tb;text-anchor:start;stroke-width:0.75px"
           y="820"
           x="-54.5"
           id="tspan103"
           sodipodi:role="line">[</tspan></text>
      <text
         id="text105-4"
         y="820"
         x="967.76349"
         style="font-style:normal;font-variant:normal;font-weight:300;font-stretch:normal;font-size:1200px;line-height:18.75px;font-family:Junction;-inkscape-font-specification:'Junction, Light';font-variant-ligatures:normal;font-variant-caps:normal;font-variant-numeric:normal;font-feature-settings:normal;text-align:start;letter-spacing:0px;word-spacing:0px;writing-mode:lr-tb;text-anchor:start;fill:#000000;fill-opacity:1;stroke:none;stroke-width:0.75px;stroke-linecap:butt;stroke-linejoin:miter;stroke-opacity:1"
         xml:space="preserve"><tspan
           style="font-style:normal;font-variant:normal;font-weight:300;font-stretch:normal;font-size:1000px;font-family:Junction;-inkscape-font-specification:'Junction, Light';font-variant-ligatures:normal;font-variant-caps:normal;font-variant-numeric:normal;font-feature-settings:normal;text-align:start;writing-mode:lr-tb;text-anchor:start;stroke-width:0.75px"
           y="820"
           x="967.76349"
           id="tspan103-9"
           sodipodi:role="line">]</tspan></text>
    </g>
    <text
       xml:space="preserve"
       style="font-style:normal;font-variant:normal;font-weight:500;font-stretch:normal;font-size:8.65721989px;line-height:5.41076279px;font-family:Beteckna;-inkscape-font-specification:'Beteckna Medium';letter-spacing:0px;word-spacing:0px;fill:#000000;fill-opacity:1;stroke:none;stroke-width:0.2164305px;stroke-linecap:butt;stroke-linejoin:miter;stroke-opacity:1"
       x="-53.221973"
       y="216.3623"
       id="text241"><tspan
         sodipodi:role="line"
         id="tspan239"
         x="-53.221973"
         y="216.3623"
         style="font-style:normal;font-variant:normal;font-weight:normal;font-stretch:normal;font-size:41.5546608px;font-family:Junction;-inkscape-font-specification:Junction;fill:#f8337d;fill-opacity:1;stroke-width:0.2164305px">nilenso systems</tspan></text>
  </g>
</svg>
